<svg xmlns="http://www.w3.org/2000/svg" xmlns:xlink="http://www.w3.org/1999/xlink" width="2028" height="2028" viewBox="0 0 2028 2028"><defs><clipPath id="b"><rect width="2028" height="2028"/></clipPath></defs><g id="a" clip-path="url(#b)"><rect width="2028" height="2028" fill="#d0d0d0"/><g transform="translate(-304.815 201.208)"><path d="M1323.363,5484.388c0-1.226-4.9-3.133-10.763-4.5s-10.763-3.133-10.763-3.95-1.362-1.362-3-1.362c-3.406,0-26.294-10.218-29.7-13.352-8.447-7.493-12.806-10.763-14.577-10.763-1.226,0-1.907-.545-1.907-1.635,0-.817-2.589-2.588-5.858-3.951-3.133-1.635-6.812-4.9-8.31-7.9a22.491,22.491,0,0,0-8.447-8.311c-3.133-1.771-5.858-4.5-5.858-6.131s-3.406-7.9-7.221-14.168c-14.986-22.751-21.253-52.587-21.253-100.679,0-33.787-1.771-40.871-9.809-39.1-3.542.818-4.087.544-1.907-.817,1.635-1.226,2.316-2.18,1.907-2.588-.545-.409-4.359-3.134-8.31-6.131s-9.4-5.313-12.125-5.313c-3.134,0-5.041-1.227-5.041-3,0-3.95-8.992-5.858-14.986-3.133a26.443,26.443,0,0,1-8.583,2.18c-2.18,0-3.951.953-3.951,1.907A1.787,1.787,0,0,1,1131,5253.6c-3.542,0-2.18-6.812,3.542-17.711,8.583-17.029,8.992-17.71,10.626-17.71.954,0,1.635-1.226,1.635-2.588s1.771-4.5,3.951-6.812c6.267-6.676,13.76-18.256,13.76-21.389,0-3,4.5-8.447,7.084-8.447,2.18,0,10.354-10.218,13.215-16.077,1.226-3.133,3.951-5.449,5.722-5.449,3.951,0,7.493-5.722,7.493-11.58,0-3.133-1.226-4.087-4.9-4.087-11.444,0-18.665-23.433-18.665-60.217,0-21.662,1.226-26.7,7.221-33.378,1.362-1.635,3-5.858,3.678-10.082a97.759,97.759,0,0,1,3.951-15.667,49.394,49.394,0,0,0,2.725-13.214,22.693,22.693,0,0,1,1.771-8.447c.954-1.771,2.725-9.4,4.087-17.03,1.226-7.493,3-15.531,3.951-17.711,4.768-11.035,8.855-74.657,11.035-164.983,1.635-71.252-3.678-147.136-14.986-212.121-2.18-12.942-4.9-28.882-5.858-35.285-1.226-6.54-3-14.306-3.951-17.711-.954-3.134-3.406-12.942-4.9-21.662-7.084-35.013-8.447-41.415-13.76-60.9-1.771-6.54-4.5-18.392-6.131-26.566-1.771-8.038-3.678-16.485-4.768-18.664a69.276,69.276,0,0,1-3-11.581c-.545-4.087-1.907-8.992-3-10.763a112.041,112.041,0,0,1-3.951-13.9c-1.362-5.858-3.133-11.58-3.951-12.806-.817-.953-1.907-5.858-2.725-10.762-.817-4.769-2.18-9.673-3-10.763-.954-.954-2.725-6.812-4.087-12.806a119.027,119.027,0,0,0-4.087-13.76c-.954-1.634-3-8.583-4.5-15.667-1.635-7.084-4.36-18.12-6.131-24.522-5.041-18.665-12.943-61.307-18.664-100.134-2.316-16.757-5.722-52.042-7.629-85.966-.954-13.76-2.18-25.476-2.725-26.157-1.635-1.771-6.131,3.134-9.809,10.354-3.678,7.084-11.172,10.082-11.172,4.36,0-1.907,1.226-7.084,2.725-11.035,1.362-4.087,3.678-11.444,5.313-16.349,1.362-4.9,3.133-9.673,4.087-10.626a10.5,10.5,0,0,0,1.635-4.9c0-1.635,1.635-4.5,3.406-6.676,3.542-3.678,4.087-7.9,10.354-69.072,2.316-21.934,3.542-31.062,8.855-63.759,3-18.12,8.038-52.588,13.9-93.322,1.362-10.763,4.087-33.787,5.722-51.089,1.771-17.3,4.087-37.057,5.313-44.141,3.406-18.12,3.406-137.327.136-150.27-1.362-5.313-3.678-18.255-5.449-28.473-1.635-10.218-4.087-25.34-5.722-33.378-4.768-23.978-11.035-57.083-12.943-69.344-1.226-6.54-2.589-12.4-3.133-13.488-.817-1.226-3-11.444-5.041-23.024-5.858-31.879-7.22-38.827-14.3-72.886-1.771-8.038-4.5-22.207-6.131-31.471-2.316-14.713-3.542-17.3-8.991-21.934-3.542-3.134-7.221-5.449-8.447-5.449-3,0-8.855-10.354-8.855-15.531,0-4.5-7.9-7.629-12.125-4.9-1.362.954-9.264,3.134-17.3,4.9-8.038,1.907-20.844,4.9-28.474,6.675-28.61,6.675-57.356,2.725-71.116-10.082-2.725-2.588-5.858-4.768-6.676-4.768-.954,0-1.771-1.362-1.771-3,0-1.771-1.771-3-4.9-3-3.542,0-4.5-.818-3.678-3,.817-1.771,0-3-1.907-3a2.921,2.921,0,0,1-3.133-2.589c0-1.362-2.589-4.087-5.858-5.858-3.134-1.907-5.858-4.5-5.858-5.722,0-1.635-5.722-1.771-18.664-.954-18.664,1.226-18.664,1.226-18.664-12.4,0-13.487,0-13.487-36.784-14.577-20.435-.409-40.6-1.362-45.231-2.18-7.493-1.226-8.447-1.907-9.673-8.037-1.226-6.267-1.771-6.676-8.992-6.676-4.36,0-9.673-.953-11.989-2.316-3-1.635-21.934-2.18-64.576-1.771-60.489.408-60.489.408-65.8-4.5-3-3-7.493-5.041-9.809-5.041s-4.9-.818-5.449-1.907c-1.907-3.134-9.673-2.18-11.989,1.635-1.226,1.771-3.678,10.081-5.722,18.12-1.907,8.038-4.768,16.076-6.131,17.71s-2.725,7.9-3,13.76c-.136,5.858-1.226,12.125-1.907,13.76-1.635,3.542-3.542,8.447-10.626,26.566-6.676,17.3-6.539,17.03-17.438,44.141-4.9,12.4-8.992,23.705-8.992,25.068a2.15,2.15,0,0,1-1.907,2.316c-.954,0-1.907,1.363-1.907,3.133s-3.133,9.4-6.812,17.03-6.812,14.577-6.812,15.531c0,3-44.549,95.5-47.138,97.818-.545.545-3.542,5.858-6.676,11.717-10.763,21.8-31.879,60.216-35.149,64.168-.954,1.362-1.226,2.588-.545,2.588.817,0,0,1.363-1.635,3.134a10.849,10.849,0,0,0-3.133,6.812c0,1.907-.817,3.678-1.907,3.678-.954,0-1.907,1.635-1.907,3.406s-1.771,8.311-3.678,14.168a434.651,434.651,0,0,0-13.215,46.321c-4.087,18.392-8.992,47.955-12.534,74.658-1.226,8.583-3.133,20.163-4.36,25.476-3.133,13.487-3,203.4,0,220.976,2.316,13.351,5.449,36.784,8.31,59.944.817,7.629,1.907,15.94,2.588,18.664.545,2.725,1.907,9.809,3.133,15.667,4.5,23.432,6.539,32.56,8.038,37.328,1.771,5.313,6.539,21.662,10.081,34.332,1.362,4.359,3.406,10.626,4.768,13.76,1.362,3.406,4.5,11.581,6.812,18.665s5.041,13.487,6.131,14.577a9.9,9.9,0,0,1,1.771,5.313,10.337,10.337,0,0,0,2.588,6.13,185.986,185.986,0,0,1,9.4,16.485c3.951,7.493,8.038,13.351,9.4,12.942,1.226-.137,2.18.817,2.18,2.316,0,3.95,7.629,16.757,13.215,22.342,2.588,2.589,4.5,5.041,4.5,6.131,0,1.907,43.732,47.274,45.5,47.274,1.907,0,15.259,14.577,14.3,15.531-.409.409-5.041-2.18-10.218-5.45-5.858-3.95-11.035-6.13-13.9-5.449-3.542.817-3.951.409-1.907-1.907,1.771-2.18,1.771-3.133-.545-4.5-1.635-1.226-3-1.226-3.406,0-1.226,3.134-4.36,2.18-4.36-.953,0-1.771-2.18-5.45-4.9-8.447-3-3.133-4.9-4.087-4.9-2.588,0,1.635-4.087-1.226-9.264-5.858a224.543,224.543,0,0,0-21.253-16.484,147.091,147.091,0,0,1-13.76-10.082c-.954-1.227-5.041-4.36-8.583-6.812a159.27,159.27,0,0,1-13.351-10.763c-10.354-10.218-32.561-25.34-33.514-22.751-.954,3.405-10.218-3.134-12.125-8.583-.954-2.588-4.768-6.13-8.31-7.9a56.3,56.3,0,0,1-7.493-4.5c-.545-.817-3.542-3-6.539-4.768-12.806-8.311-25.34-20.163-29.291-27.929-8.583-16.757-14.3-36.375-18.664-63.759-1.635-10.218-3.951-23.569-5.041-29.427-3.406-15.123-3.133-161.986,0-184.6,1.362-9.264,3.678-28.065,5.313-42.234,4.768-41.688,12.534-84.6,17.03-93.731a20.129,20.129,0,0,0,1.771-7.493c0-5.041,3.951-21.662,6.131-25.885a20.128,20.128,0,0,0,1.771-7.493,27.206,27.206,0,0,1,2.588-9.4A109.057,109.057,0,0,0,340,3627.616c1.362-5.859,3.133-12.534,4.087-14.714a118.054,118.054,0,0,0,3.678-12.806,134.1,134.1,0,0,1,4.087-12.806c.817-2.18,3-8.311,4.5-13.76,8.31-27.656,21.389-69.072,23.16-72.07a18.715,18.715,0,0,0,1.771-6.812c0-1.907,1.226-5.858,2.725-8.583a92.545,92.545,0,0,0,5.041-15.667c1.362-5.858,3.133-11.989,4.087-13.487a92.76,92.76,0,0,0,3.951-11.717,87.654,87.654,0,0,1,3.678-10.762c.817-.954,3.678-9.809,6.676-19.618,3-9.673,6.267-19.209,7.22-20.98a16.757,16.757,0,0,0,1.771-5.721c0-1.226,1.226-4.9,2.725-8.311,1.635-3.542,5.041-13.76,8.038-23.024s6.131-17.438,6.812-18.665c.817-.954,2.588-6.812,4.087-12.806a111.732,111.732,0,0,1,3.678-12.806c.817-.954,2.588-6.267,3.951-11.717a129.17,129.17,0,0,1,5.313-14.714c1.362-2.725,2.589-6.131,2.589-7.493a16.52,16.52,0,0,1,1.771-5.858c.954-1.771,4.36-10.762,7.084-20.027,3-9.264,6.131-17.438,6.812-18.664.817-.954,2.589-6.676,4.087-12.125,1.362-5.722,3-10.354,3.678-10.354.545,0,1.226-1.771,1.362-3.678.136-2.18,1.771-7.9,3.406-12.943,1.771-5.041,2.725-10.081,2.18-11.035-.817-.954-8.855-1.771-18.256-1.771-9.673-.136-20.436-1.363-24.931-3a54.922,54.922,0,0,0-16.076-3c-6.812,0-8.855.954-12.125,5.722-2.316,3.134-4.087,6.539-4.087,7.63,0,.953-1.907,3.95-4.5,6.54-8.31,8.447-17.03,23.024-17.03,28.065,0,2.725-.817,5.04-1.907,5.04a1.948,1.948,0,0,1-1.907-1.907c0-.953-1.226-1.907-2.589-1.907a2.649,2.649,0,0,0-2.725,2.725c0,5.858-6.539,16.757-9.4,15.667-1.635-.818-3-.136-3,.953,0,.954-2.725,5.041-5.858,8.583-3.406,3.678-5.858,8.583-5.858,11.035,0,2.725-1.771,4.9-5.313,6.267-3,.954-8.447,5.449-12.125,10.082-3.951,4.359-8.992,10.081-11.58,12.534-2.316,2.588-4.36,4.9-4.36,5.449,0,.409-3,3.678-6.539,7.493-10.763,11.171-24.931,27.52-24.931,28.882,0,.545-2.588,2.316-5.449,3.679-7.084,3.133-29.291,25.067-32.424,32.152-1.226,3.133-3.133,5.449-4.36,5.449-.954,0-4.5,4.9-7.9,10.762-3.133,5.858-6.539,10.762-7.221,10.762a2.018,2.018,0,0,0-1.635,2.18c0,1.226-1.362,3.406-3,5.041s-2.589,3.542-1.907,4.5c.545.817-.136,1.907-1.771,2.588-1.362.545-3.406,3.542-3.951,6.675a27.1,27.1,0,0,1-3.951,8.447c-3.406,3.95-8.992,18.664-8.992,23.433a9.4,9.4,0,0,1-3,6.131c-1.635,1.362-3,3.678-3,5.449,0,1.635-2.316,7.9-5.313,13.9-2.725,6.13-5.722,12.806-6.539,14.986-2.725,7.221-7.221,21.389-9.809,30.381-1.362,4.9-3.133,11.035-4.087,13.76-.817,2.725-3.951,15.122-6.676,27.52-3,12.4-5.858,25.34-6.812,28.473-.954,3.406-2.725,15.123-3.951,26.566s-3,27.656-3.951,36.512c-3,24.114-2.316,72.069,1.226,91.142,6.131,33.515,6.131,34.74-1.635,27.52-2.316-2.179-5.858-3.95-7.9-3.95-1.907,0-3.542-.954-3.542-2.18,0-.954-2.725-4.768-5.858-8.311-3.406-3.542-6.539-7.9-7.084-9.673-1.362-4.36-3.951-4.5-5.449-.545-.545,1.635-1.907,3-3.133,3-1.362,0-1.362-1.226.136-4.087,1.771-3.406,1.362-4.9-1.907-8.447-2.316-2.316-4.087-5.041-4.087-6.267,0-3.133-10.082-14.714-26.839-31.879C70.8,3684.291,70.8,3684.291,70.8,3668.215c.136-18.256,7.084-64.032,11.58-76.021.954-2.725,3-9.809,4.36-15.667,1.226-5.858,3-11.58,3.678-12.806a79.679,79.679,0,0,0,3.678-10.763c2.316-8.311,17.847-41.007,25.476-53.95,1.907-3.134,5.449-9.264,7.9-13.351,5.858-10.354,10.626-17.847,12.125-19.073.817-.545,2.18-3.542,2.725-6.539.817-3,2.589-6.131,3.678-6.812,1.362-.817,3.542-4.36,4.9-7.9a58.457,58.457,0,0,1,8.583-12.806c7.084-7.493,13.215-17.03,13.215-20.572,0-1.362,2.589-4.768,5.449-7.22,6.267-5.313,25.885-33.378,25.885-37.057,0-1.362,1.771-4.087,3.678-6.539,3.951-4.087,15.94-21.8,27.656-41.007a133.709,133.709,0,0,1,10.082-14.577c1.635-2.18,4.768-6.13,6.812-8.855a56.824,56.824,0,0,1,6.267-7.9c1.226-1.635,2.316-3.679,2.316-5.041s2.18-5.313,4.9-8.856,4.9-7.22,4.9-8.447a2.011,2.011,0,0,1,1.771-2.18c.954,0,2.725-2.588,4.087-5.858,1.362-3.134,3.133-5.858,4.087-5.858a1.928,1.928,0,0,0,1.771-1.907c0-1.907,14.986-23.16,17.847-25.477,1.771-1.635,7.9-13.76,6.812-13.76-.545,0,.954-1.907,3.406-4.5,10.218-10.626,17.03-20.98,17.03-25.748,0-1.635,2.18-4.5,4.9-6.676,4.5-3.542,6.812-11.989,3.542-12.4-6.676-.818-11.58-2.18-25.476-7.493-8.992-3.406-17.847-6.812-19.618-7.9-8.583-4.5-22.343-10.081-25.068-10.081-1.771,0-2.589-.954-1.907-1.907.545-.953-.545-1.907-2.725-1.907-2.316,0-4.087-1.226-4.087-2.724,0-1.635-1.907-3.134-4.5-3.951-5.449-1.362-13.215-7.629-13.215-10.763,0-1.226-.545-2.18-1.362-2.18-3.133,0-11.716-9.264-14.169-15.122-1.362-3.406-3.542-6.676-4.9-7.084-1.362-.545-4.9-5.858-7.629-11.717-8.038-16.076-7.221-25.749,9.4-118.254,1.635-8.583,3.678-20.98,4.9-27.52.954-6.539,2.725-16.076,3.951-21.661,14.986-67.029,17.847-90.189,12.806-97.954-6.131-9.264-4.087-109.126,3-147.408,4.5-24.522,11.716-57.764,14.169-63.759.545-1.635,2.316-7.221,3.678-12.806a84.827,84.827,0,0,1,5.041-15.122c1.362-3,2.589-7.084,2.589-9.4,0-2.18.817-3.951,1.635-3.951.954,0,3-4.5,4.36-10.082,1.635-5.313,3.542-10.218,4.36-10.763s1.635-2.725,1.635-5.041c0-2.18,1.362-6.267,2.725-8.992,10.218-18.664,24.8-53.813,24.8-59.944,0-1.907.817-3.134,1.907-2.316.954.545,3.406-1.771,5.041-5.041,3-5.858,3-6.539-.817-10.218-4.5-4.5-6.812-3.133-12.125,7.493-3.406,6.54-8.992,12.806-11.58,12.806-.954,0-2.316,2.18-3,4.9-.817,2.725-1.907,4.9-3,4.9-2.589,0-17.847,16.348-17.847,19.073,0,1.362-.817,2.588-1.771,2.588s-2.316,1.635-3,3.542c-.817,2.18-3.542,4.9-6.131,6.267-2.725,1.363-4.9,4.36-4.9,6.54,0,4.359-7.221,17.03-9.809,17.03-.954,0-2.316,1.907-3.133,4.36-1.635,5.041-11.171,15.258-14.577,15.258-4.768,0-13.76-12.534-13.76-19.482,0-1.771-1.362-4.9-3-6.812-3.678-4.9-3.678-13.76,0-17.711,1.635-1.635,3-4.359,3-5.858,0-1.771.817-3.134,1.635-3.134.954,0,3.406-3.134,5.45-6.812,1.907-3.678,4.36-6.812,4.9-6.812.817,0,1.907-3,2.588-6.676.954-5.313,2.316-6.812,7.084-7.629,4.087-.954,7.629-3.951,12.125-11.171,3.542-5.313,7.493-9.809,8.583-9.809,1.226,0,3.406-2.316,4.768-5.313a56.334,56.334,0,0,1,6.267-9.4c17.711-19.482,20.163-24.523,15.531-29.427-3.678-3.951-9.673-16.076-11.035-22.752-.817-3.678-3.133-11.716-5.041-17.847-3-8.855-3.678-17.03-3.678-38.691,0-27.248,0-27.248,6.812-33.787,3.678-3.678,6.812-7.629,6.812-8.855,0-1.363,1.362-3,3.133-3.542,1.635-.545,2.316-1.907,1.771-3.134-.545-.954,0-1.362,1.771-.817,3,1.226,24.114-4.087,27.656-7.084,1.226-.817,6.812-2.588,12.806-3.678,5.858-1.362,13.76-3.406,17.03-4.359,20.027-6.131,73.023-12.125,96.865-11.035,10.218.545,21.662.409,25.068,0,6.131-.954,6.539-1.362,5.041-7.22a21.438,21.438,0,0,0-3.542-8.856c-1.635-2.179-1.635-3,.409-3.542a4.362,4.362,0,0,0,2.316-3.678c0-1.635,2.18-3.678,4.9-4.769,5.041-1.907,18.392-18.8,18.664-23.569,0-1.635,1.771-4.087,3.951-5.449s3.951-4.087,3.951-6.267,1.226-3.951,2.588-3.951c3.133,0,11.171-8.31,11.171-11.444a2.156,2.156,0,0,1,1.907-2.316c1.226,0,1.907-1.635,1.907-3.542,0-1.771,1.771-4.36,4.087-5.313,5.858-3,11.716-13.215,9.673-16.757-1.771-2.588-2.18-2.588-3.951,0-1.226,1.771-1.907,1.907-1.907.545s1.362-3.133,3.133-4.087c2.725-1.635,2.725-1.908,0-4.087a10.957,10.957,0,0,1-3.133-7.221c0-2.589-1.771-8.038-4.087-12.4-3.951-7.629-4.087-10.218-3.133-58.582.817-45.5,3.746-63.915,9.128-80.516,6.133-17.192,13.624-32.288,13.624-33.514,0-1.362,15.94-30.653,18.12-35.013a133.152,133.152,0,0,1,12.4-18.8c4.768-5.858,21.662-30.108,27.247-37.193,5.313-6.812,11.58-14.577,13.76-16.757,2.18-2.316,6.676-7.22,9.809-11.035,30.245-35.013,61.443-67.3,63.078-65.8,1.907,1.907-28.61,59.808-29.7,61.034-1.907,2.18-16.485,23.978-23.16,35.013-1.771,3-23.433,67.573-29.019,99.725-1.226,5.858-3.406,17.438-5.041,25.476-1.771,8.038-3.542,27.52-3.951,43.187-.954,24.114-.545,29.018,1.907,31.062,4.36,3.542,10.626-.545,13.488-8.855,1.362-3.542,3-6.54,3.678-6.54.817,0,1.771-2.316,2.18-5.313a9.236,9.236,0,0,1,5.041-7.493c2.316-.954,4.36-2.725,4.36-3.951,0-.954,2.725-3.542,5.858-5.313,3.406-1.771,5.858-4.9,5.858-6.676,0-1.907,3-6.131,6.539-9.4,11.035-10.627,13.76-14.714,15.122-23.433,2.18-12.125,9.809-40.6,12.943-47.955,1.635-3.406,9.537-35.285,13.76-45.231,1.362-3.406,18.119-43.187,20.3-45.64,2.18-2.588,18.8-35.285,19.754-35.285s14.169-33.105,17.438-37.193c3.133-4.087,20.027-32.152,21.8-33.378,7.493-5.041,61.565-102.218,64.849-131.741,4.359-7.629,3.951-14.714-.818-13.351-2.725.954-22.207,23.569-35.694,41.825a122.972,122.972,0,0,1-8.038,10.218,59.735,59.735,0,0,0-6.676,9.4c-2.316,3.678-15.667,19.346-29.018,36.239-3.542,4.359-14.577,19.209-20.844,28.065-3.133,4.359-14.3,19.618-17.983,23.978-5.722,6.539-7.221,7.221-8.855,4.9-2.725-4.087-2.316-6.676,1.635-11.035,5.041-5.722,31.88-45.776,34.468-48.228,7.629-7.629,14.577-17.711,21.525-27.929,3.951-5.858,28.169-41.635,33.787-54.086,5.553-9.4,22.752-33.923,25.476-38.146,2.725-4.359,6.539-11.035,8.31-14.714,1.907-3.678,4.087-7.084,5.041-7.493a3.1,3.1,0,0,0,1.362-2.589c0-3,10.082-23.433,15.667-32.152,5.041-7.629,12.534-22.343,18.665-36.784,1.771-4.087,20.3-45.095,24.659-53.814,4.087-8.855,7.629-17.3,7.629-19.073s15.94-41.007,18.12-47.411c2.18-6.539,13.76-41.007,15.122-48.092s12.534-44.686,13.9-52.451c2.18-11.58,2.18-15.122,0-20.572a76.123,76.123,0,0,0-3.678-7.493c-1.907-1.771-6.131-8.583-10.763-18.665-13.215-27.247-14.986-41.007-14.714-114.848,0-41.961.817-68.118,2.725-81.47,1.362-10.763,3.678-27.111,4.9-36.375s3-20.98,3.951-26.566c.954-5.313,2.725-20.027,4.087-32.424,1.226-12.4,3-25.068,4.087-28.473.954-3.133,2.18-15.531,2.725-27.52.954-21.662.954-21.662-3.542-16.076-15.531,18.8-20.572,23.433-33.514,29.836-7.493,3.678-15.122,6.812-16.893,6.676-2.18,0-1.771-.817,1.362-2.18,2.316-1.226,4.36-3,4.36-3.951,0-2.18-37.874,0-45.912,2.588-3.133.954-15.94,3.133-17.711,4.768-3.133,3.406-8.992,3.951-8.992,1.226,0-.954-3.678-2.316-8.31-3.133-13.9-2.316-27.111-10.354-27.111-16.485,0-2.18.817-1.771,3.133,1.362,4.087,5.858,15.122,10.218,26.294,10.218,12.943,0,15.667-1.362,15.667-7.9,0-4.768-1.226-5.858-6.812-7.9-3.678-1.226-6.812-3-6.812-3.951s-9.945-24.25-2.861-31.334c3-3,3.133-3,1.907.136-1.771,4.36,16.212,21.662,18.392,24.386,1.907,2.589,43.56,27.938,67.982-35.83,3.133-6.267,6.131-11.716,6.812-12.4.818-.545,1.907-3.133,2.589-5.858a118.632,118.632,0,0,1,3.133-11.716c.954-3.678,3.406-12.534,5.041-19.618a154.842,154.842,0,0,1,5.041-16.757,78.044,78.044,0,0,0,3.678-13.76c.954-5.313,2.589-13.487,3.678-18.119,1.226-4.768,3.133-13.9,4.087-20.572,1.226-6.812,3.406-17.711,4.768-24.114,4.087-16.485,10.763-45.5,12.943-55.176a87.3,87.3,0,0,1,4.36-13.487c2.18-4.768,2.18-5.722-.409-6.539-1.635-.545-5.449-3.542-8.447-6.676-3.542-3.542-7.629-5.449-11.172-5.449a34.88,34.88,0,0,1-10.218-1.771c-2.589-.954-9.4-3.406-15.259-5.041-5.858-1.771-11.444-4.36-12.125-5.722-2.589-3.951-1.771-13.215,1.771-19.073,3-4.9,3.133-6.539.817-10.082-8.038-12.943-10.082-18.12-10.082-27.111,0-8.447.817-10.081,5.858-13.76,3.133-2.316,5.858-5.858,5.858-7.9a11.792,11.792,0,0,1,3-6.676c1.635-1.635,3-3.678,3-4.768,0-3,5.722-4.5,11.444-3,5.041,1.226,18.392,9.809,19.618,12.943.409.817,1.907,1.362,3.542,1.362s5.722,3,9.264,6.539a83.021,83.021,0,0,0,11.716,10.082c3,1.907,5.313,4.36,5.313,5.313s5.313,8.447,11.989,16.485c11.171,13.76,15.531,16.485,15.531,9.673a16.857,16.857,0,0,1,1.771-6.267c1.947-24.092,12.739-45.883,25.749-73.159,0-3.406,10.129-24.92,23.842-47.683,1.635-4.087,21.934-30.653,27.247-36.511,5.449-5.858,18.119-22.207,20.027-22.888,1.907-.545,7.445-8.366,21.117-21.253,16.524-14.358,15.64-15.516,28.065-25.2,16.349-12.927,34.6-21.662,37.738-23.978,3.406-2.316,45.639-20.708,49.726-21.525,3.951-.817,39.509-9.945,42.642-10.763,12.125-3.542,53-5.722,72.478-3.951,15.94,1.362,21.253,1.226,28.474-1.362,18.665-6.267,49.454-23.16,65.394-35.967,3.951-3.406,30.108-26.7,33.651-30.245,7.493-7.9,24.523-38.828,27.111-47.819,3.678-13.215,5.319-49.852-74.359-67.437-35.035-11.58-119.578,6.273-143.476,17.712-58.937,21.852-86.625,44.546-83.521,77.381,3.329,13.763,7.222,16.783,15.8,22.246a52.36,52.36,0,0,0,21.8,4.593c3.406,0,6.676.817,7.221,1.771s-21.117,1.771-29.019-1.771c-15.531-7.221-17.984-12.509-22.356-25.107-2.741-10.394-1.916-21.852,2.483-29.054,2.656-4.975,8.566-14.366,12.517-18.317,8.583-8.583,33.828-25.846,39.1-27.929,9.866-4.755,26.839-11.989,31.879-13.351,4.9-1.362,10.627-3.406,12.806-4.087,19.618-7.221,46.321-12.534,84.467-16.757,21.389-2.18,29.019-2.18,48.092,0,26.839,3.133,68.527,17.91,76.565,21.588,11.717,5.313,38.931,19.725,46.048,36.994,3,6.267,13.046,27.063-23.977,84.6-.954,0-21.023,25.661-38.828,32.016-4.5,4.5-22.615,12.534-33.787,15.122-7.493,1.635-7.493,5.722.136,6.539,3,.409,34.468,7.622,39.645,10.082,2.18.954,14.169,5.858,26.566,11.171A325.225,325.225,0,0,1,1551.559,283c7.493,4.5,17.3,10.218,21.662,12.534,3.762,2,25.2,19.482,30.108,24.386,4.768,4.9,28.337,24.659,31.062,28.2,2.725,3.406,16.757,20.027,22.07,25.885,10.082,10.763,13.215,15.94,23.024,35.285,3.134,5.858,6.267,11.035,7.084,11.444s13.351,29.018,22.343,48.5c6.267,13.76,8.992,20.572,10.082,26.294.817,3.406,11.444,29.836,12.806,35.966,1.362,6.267,3.134,11.444,3.951,11.444s3.542-4.36,6.131-9.809c2.589-5.313,24.114-29.427,25.476-29.427,16.46-18.1,26.7-21.8,30.653-24.523a27.047,27.047,0,0,1,14.577-4.9c7.084,0,7.9.545,12.806,10.763,3,5.858,6.812,11.171,8.583,11.716,7.493,2.589,6.539,16.485-2.589,35.694-3.406,7.084-3.542,9.4-1.635,15.122,2.725,8.583.954,15.531-5.449,20.163-6.131,4.5-22.615,10.354-29.019,10.354-2.316,0-7.9,3.542-12.534,8.038-6.539,6.267-7.9,8.992-6.812,12.125,1.362,4.768,4.087,16.893,6.812,30.79.953,4.9,3.133,15.122,4.9,22.615,1.771,7.629,3.951,17.711,4.9,22.615s2.589,12.806,3.678,17.711c.954,4.9,3.678,16.893,5.858,26.566,2.18,9.809,5.313,22.615,6.812,28.474,1.635,5.858,4.359,16.485,6.131,23.569,1.635,7.084,3.678,14.577,4.768,16.757,6.812,15.94,13.584,30.653,15.492,32.424s12.815,19.469,16.9,20.981c0,.817,20.6,10.354,26.052,10.354,8.992,0,19.209-3.678,23.569-8.31,2.18-2.589,12.4-13.351,12.4-15.8,0-2.589.818-5.858,1.771-7.221,1.635-2.316,2.589-2.18,5.722,1.907,4.768,5.722,9.264,18.256,7.493,20.981-.545.954-3.678,2.316-6.812,3-4.359.954-15.8,16.893-15.8,19.073s7.265,6.438,32.152-.272c5.041-3,9.264-5.041,9.264-4.5,0,3.678-16.893,14.577-22.615,14.577a16.035,16.035,0,0,0-8.583,3.406c-3.951,2.589-5.313,2.725-8.447.817-4.768-3-19.209-5.858-36.1-7.493-8.856-.817-13.488-.136-18.12,2.18-8.038,4.087-23.6,2.589-32.724-2.18-3.951-2.18-13.87-11.378-22.368-22.105-.63-.6-19.43-33.888-26.65-48.874-2.18-4.5-4.768-8.31-5.722-8.31-2.316,0-.136,165.119,2.589,202.312,4.087,55.04,5.858,73.977,7.9,82.423.954,4.9,3.406,19.482,4.9,32.424,1.635,12.943,4.36,31.607,5.858,41.28,1.771,9.809,3.951,23.024,4.9,29.427,6.675,43.6,17.847,105.447,20.027,110.9.545,1.635,11.853,50.953,13.079,54.086,1.226,3.406,4.9,15.122,8.311,26.566s17.711,52.315,20.435,58.446c6.267,13.76,7.629,16.893,11.035,26.839,1.362,4.359,5.449,13.76,8.855,21.253,3.542,7.221,6.539,13.9,6.539,14.986,0,.953,1.771,5.041,3.678,9.4,2.18,4.087,7.22,14.577,11.444,23.16,4.087,8.583,103.893,165.551,103.348,166.913s22.807,39.486,25.669,43.028a120.478,120.478,0,0,1,8.855,11.716c1.771,3,46.184,77.519,52.043,91.824a104.792,104.792,0,0,0,5.313,11.58c3.134,5.313,13.9,28.337,20.98,44.822,3.951,8.992,20.827,43.259,32.016,68.255,7.9,23.78,11.171,41.825,13.9,45.231,3.406,4.5,13.351,50.68,15.531,71.661.954,9.264,2.725,26.566,4.087,38.555,2.18,19.482,1.907,23.024-.817,30.108-1.907,4.5-3.406,10.763-3.406,13.9a26.813,26.813,0,0,1-2.316,10.082c-1.907,3.406-1.907,4.5,0,5.041a3.937,3.937,0,0,1,2.316,3.406c0,1.362,2.18,5.041,4.9,8.311,2.725,3.134,4.9,6.267,4.9,7.084s1.771,1.907,3.951,2.588c2.18.545,3.951,2.316,3.951,3.678s2.18,4.5,4.9,7.084,4.9,5.449,4.9,6.54c0,2.725,8.038,9.264,10.082,8.038.953-.545,3.951,1.226,6.676,3.951,2.725,3,7.084,5.041,9.673,5.041,2.316,0,5.041.545,5.858,1.362,1.226,1.226,15.259,5.449,35.558,10.626a67.7,67.7,0,0,1,13.76,4.769,118.711,118.711,0,0,0,11.717,3.951c6.812,1.635,10.354,3,22.751,8.583,4.9,2.18,10.218,4.087,11.444,4.087,1.363,0,7.22,2.18,13.215,4.9,5.858,2.725,11.58,4.9,12.534,4.9a1.859,1.859,0,0,1,1.907,1.907c0,1.226,1.635,1.907,3.542,1.907,3.951,0,8.855,4.768,10.763,10.218.545,1.771,4.087,4.36,8.038,5.722,6.131,2.18,6.676,3.134,5.722,7.9-.545,2.725,0,5.858,1.226,6.539,1.226.817,2.18,3.542,2.18,6.131,0,2.316,1.363,4.9,3,5.722a4.547,4.547,0,0,1,3,3.951,4.2,4.2,0,0,0,1.635,3.542c3.406,1.362,8.992,32.833,10.218,55.584.954,22.343.818,23.978-3.678,32.561-2.725,4.9-7.9,11.035-11.444,13.351-3.542,2.179-6.54,5.041-6.54,6.131,0,1.771,7.221,12.125,19.073,26.839,1.907,2.316,4.087,3.678,4.9,3.406.817-.545,1.635.817,1.635,3.134,0,4.36,6.812,11.58,11.444,11.716,1.226,0,2.316,1.362,2.316,3.134,0,1.635,2.18,5.858,4.9,9.4s4.9,7.493,4.9,8.583c0,1.362,3.134,5.449,6.812,9.4,3.678,3.678,6.812,8.583,6.812,10.627,0,3.406,4.9,6.676,7.493,5.041.817-.409,1.362,1.907,1.362,5.041,0,3.951,1.362,6.676,3.951,8.31,4.768,2.589,5.858,4.087,14.986,20.844,9.809,18.12,12.125,21.662,14.986,21.662,1.226,0,3.678,4.087,5.722,9.4,1.907,5.041,4.769,10.763,6.267,12.534,2.18,2.725,2.589,7.084,1.771,19.618-2.316,31.471-6.539,53.814-10.763,58.582-4.9,5.313-7.493,3.951-9.264-4.5-.817-3.406-2.18-6.676-3-7.22a46.345,46.345,0,0,1-4.36-6.812c-1.635-3.134-4.359-8.447-6.131-11.716-1.635-3.134-7.629-15.259-13.351-27.111-5.449-11.58-10.763-20.98-11.716-20.98a2.01,2.01,0,0,1-1.771-2.18c0-2.725-15.259-35.558-17.3-37.056-.817-.545-3.134-4.5-5.313-8.855-3.951-7.9-3.951-7.9-4.5,0-.409,4.36.409,16.349,1.635,26.566,1.771,13.9,1.907,22.207.409,32.424-1.226,7.629-2.725,17.847-3.406,23.024-.545,5.041-1.907,9.809-3.134,10.354-.953.818-1.771,4.5-1.771,8.447s-1.771,11.171-3.951,15.94c-4.359,9.264-5.041,26.157-1.907,37.465.954,3.678,3.134,18.8,4.9,33.378,1.635,14.577,4.36,35.013,6.131,45.231,8.583,54.631,10.626,86.238,6.676,103.676a119.2,119.2,0,0,1-6.812,18.392c-2.725,5.722-4.9,11.717-4.9,13.76,0,1.907-.954,3.542-2.18,3.542-1.362,0-1.771,1.907-.954,4.9s.409,4.9-.954,4.9c-1.226,0-3.134,1.226-4.359,2.588-6.54,6.812-7.629,12.943-9.4,45.367-1.635,32.969-3.406,47.546-7.629,67.028-1.226,5.449-3,16.485-3.951,24.523a145.583,145.583,0,0,1-5.041,23.569c-3.406,8.855-4.768,14.714-8.583,36.375-1.226,6.267-2.316,11.989-2.725,12.125-.409.408-5.041,1.226-10.763,1.907-5.449.545-11.035,2.316-12.125,3.678-1.771,2.18-1.635,2.725.136,2.725,1.635,0,1.907.545,1.362,1.362-.817.545,1.226,5.722,4.359,11.171s7.493,13.215,9.673,16.893,8.583,16.076,14.3,27.52,11.035,20.98,11.58,21.662c.545.545,3.678,6.267,6.676,12.806s6.131,12.125,6.812,12.806c.545.545,4.5,7.63,8.583,15.667s10.218,19.21,13.488,24.523c8.992,14.713,35.694,67.573,38.691,77.11,1.635,4.5,3.406,8.311,3.951,8.311.817,0,3.678,5.858,6.812,13.352,3.134,7.221,7.221,16.893,9.264,21.661,2.18,4.769,5.313,12.125,7.084,16.757,1.771,4.5,5.722,12.806,8.583,18.12,2.725,5.449,5.858,13.9,6.676,18.664s2.725,9.809,4.087,11.444c1.635,1.362,3.406,4.9,3.951,7.9a56.54,56.54,0,0,0,3.951,11.717,30.119,30.119,0,0,1,2.725,10.218c0,1.907.817,4.087,1.771,4.768.953.545,2.316,4.5,3.133,8.446a82.124,82.124,0,0,0,3.678,13.351c3.951,8.992,12.806,38.147,22.751,73.7,2.18,8.038,4.768,17.438,5.722,20.572a187.263,187.263,0,0,1,4.087,22.615c1.362,9.264,3.134,19.209,4.087,22.615,2.589,7.9,6.676,71.116,6.676,100.134,0,28.61-4.36,94.412-6.812,105.583-.954,4.5-3.406,17.03-4.9,27.929-5.041,32.425-6.267,39.1-8.447,44.14-1.226,2.725-3.134,9.4-4.5,14.714-1.363,5.449-3,10.763-3.678,11.717-.817,1.226-2.588,6.539-3.951,11.717-1.362,5.449-3.134,10.762-3.951,11.716-.545,1.226-3.678,8.583-6.676,16.758-3,8.038-8.311,20.572-11.58,27.656-6.267,13.215-6.267,13.215-36.784,14.169-16.757.545-35.285,2.18-41.28,3.133-5.858,1.226-19.209,3.134-29.7,4.5-18.8,2.588-18.8,2.588-3-13.215,23.024-22.752,32.561-34.332,32.561-39.509,0-2.316.817-4.768,1.635-5.041,2.725-.954,16.076-21.389,16.076-24.386,0-1.635.954-2.725,1.907-2.725,1.226,0,1.907-1.771,1.907-3.678,0-2.18,2.18-6.539,4.9-9.673,2.725-3.406,4.9-8.038,4.9-10.763s.817-5.449,1.771-6.131c3-1.907,17.3-33.378,21.8-47.683,2.316-7.9,4.9-14.305,5.858-14.305.817,0,1.907-2.316,2.588-5.313a123.686,123.686,0,0,1,3.134-12.806c1.226-4.087,3.133-10.763,4.359-14.713a131.216,131.216,0,0,0,3.134-13.352,26.546,26.546,0,0,1,2.588-7.9c.954-.954,2.18-5.449,3-9.809.545-4.359,1.907-9.673,3-11.716,1.771-3.678,5.041-20.844,10.763-55.994,9.809-58.582,8.855-108.581-3.133-140.46-.818-2.18-2.316-7.084-3.678-10.762-4.087-11.717-17.847-39.236-19.891-39.236-.954,0-1.771-1.362-1.771-3.134,0-3-7.493-20.027-9.809-22.343a58.375,58.375,0,0,1-4.5-7.9c-8.038-15.667-10.082-18.665-12.4-20.163-5.449-3.134-8.311-7.493-7.22-11.036.545-2.179-1.771-8.583-5.722-15.258-3.542-6.267-7.9-13.76-9.264-16.757-1.635-3.134-4.087-5.45-5.722-5.45s-2.316-1.226-1.771-2.724c.545-1.635-.545-5.041-2.725-7.629-1.907-2.725-3.678-6.267-3.678-7.9s-2.589-5.859-5.858-9.4c-3.133-3.678-5.858-7.22-5.858-8.311,0-3.542-8.311-18.392-12.806-23.433-2.725-3-4.9-6.267-4.9-7.221,0-2.18-6.676-13.9-12.806-22.751a79.085,79.085,0,0,1-6.812-11.717c-3.406-6.812-15.94-25.067-18.12-26.157a3.458,3.458,0,0,1-1.635-3.134c0-1.226-3.951-8.855-8.855-16.757s-8.855-14.714-8.855-15.258c0-.409-2.18-3.678-4.9-7.221s-4.9-7.084-4.9-7.63c0-.817-3.678-7.22-8.447-14.577-4.5-7.493-10.354-17.711-13.215-23.024-2.589-5.313-6.812-10.354-9.264-11.581-2.589-1.226-4.5-3.133-4.5-4.5,0-2.316-8.447-19.073-17.711-35.149-9.4-16.485-14.713-25.885-19.209-34.332-11.989-23.16-20.027-33.378-25.749-33.378-3,0-4.087,1.226-4.087,4.359,0,4.9,4.087,17.3,6.812,20.572,1.226,1.363,3,3.542,4.087,4.9,1.226,1.635,2.725,7.493,3.542,13.351s2.18,15.667,3.133,21.662c1.226,5.858,2.725,20.572,3.951,32.424.954,11.989,2.725,26.158,3.678,31.471,1.226,5.45,3,22.616,4.087,38.283,1.226,15.667,2.588,31.607,3.134,35.285,3.678,23.705,10.082,97.137,12.534,143.321,5.313,97.954,9.673,283.782,6.539,274.927-.545-1.635-3.133-7.63-5.722-13.352s-4.768-10.762-4.768-11.444c0-.545-2.18-3.133-4.768-5.858-5.858-6.54-6.812-4.9-8.992,14.577-2.18,18.392-5.313,39.918-7.9,50.408-.954,4.36-2.725,22.615-4.087,40.6-1.907,26.294-1.907,38.827,0,64.576,1.363,17.71,3.406,33.514,4.36,35.285a23.434,23.434,0,0,1,1.771,8.583,37.21,37.21,0,0,0,2.588,11.444,140.768,140.768,0,0,1,5.313,14.168c3.678,11.717,20.027,46.184,21.934,46.184.818,0,1.635,1.635,1.635,3.678,0,4.36,17.3,37.738,21.389,41.416.817.545,2.589,3.678,4.087,6.812a36.075,36.075,0,0,0,4.087,6.812,32.191,32.191,0,0,1,3.678,5.858c1.362,2.725,5.858,8.855,9.809,13.76,4.087,4.9,8.855,11.58,10.627,15.122a51.121,51.121,0,0,0,5.449,8.855c1.635,1.362,6.131,7.084,10.354,12.4,4.359,5.449,12.806,14.986,18.665,20.98,31.879,32.833,47.683,48.637,48.909,48.637.818,0,5.041,3.542,9.809,7.9,4.5,4.36,9.673,7.9,11.444,7.9,1.635,0,2.588.954,2.18,2.316-.409,1.226-6.54,3.542-13.487,5.041-6.812,1.635-14.305,3.406-16.485,4.359a117.884,117.884,0,0,1-12.806,3.679c-13.488,3.678-31.607,9.264-38.828,11.989-4.768,1.771-6.267,3.406-5.722,5.858.817,3.133.136,3.406-6.131,1.634-15.122-4.086-33.514-19.481-51.634-42.778-6.267-8.038-12.806-16.076-14.3-17.71a23.92,23.92,0,0,1-4.087-7.629c-.817-2.725-4.36-9.265-7.629-14.714-6.267-9.809-8.447-14.305-16.757-33.515-2.316-5.313-5.041-11.58-6.131-13.76a84.525,84.525,0,0,1-4.087-12.806,87.584,87.584,0,0,0-3.678-10.763c-.817-.954-2.179-5.45-3-9.81s-1.907-8.583-2.725-9.809c-.817-.954-2.589-7.22-3.951-13.76s-3.406-13.9-4.359-16.757c-.953-2.725-3-11.989-4.768-20.572-3.678-20.163-6.54-35.149-8.855-46.184-.954-4.9-2.725-19.482-3.951-32.424s-3-29.291-4.087-36.375c-1.771-12.4-4.087-85.285-7.9-240.595-3-121.115-5.041-147.272-13.487-164.166a185.432,185.432,0,0,1-8.311-20.163c-1.907-6.676-4.9-14.577-6.267-17.847-4.768-10.082-6.676-14.987-15.94-39.237-4.9-12.943-9.673-24.931-10.626-26.566-.817-1.635-2.725-7.084-4.36-12.125-1.363-5.312-3.406-9.4-4.087-9.4-.817,0-1.635-.954-1.635-2.316,0-1.226-3-8.583-6.676-16.076a190.105,190.105,0,0,1-8.038-18.8,42.279,42.279,0,0,0-3-8.855c-.954-2.18-4.087-11.035-7.084-19.618s-5.858-16.485-6.676-17.711c-.817-.953-2.589-6.267-3.951-11.716a96.714,96.714,0,0,0-3.678-11.716c-.817-.954-2.589-5.449-3.951-9.809s-3.542-10.354-5.041-13.76c-4.9-11.171-6.676-15.667-7.9-20.572-.817-2.725-2.589-7.493-3.678-10.763-3.542-8.447-7.084-18.256-10.354-28.882-2.725-8.992-3.134-9.4-10.354-9.4a43.422,43.422,0,0,0-13.9,2.725c-3.678,1.362-7.9,2.179-9.4,1.635a3.571,3.571,0,0,0-4.087,1.635c-2.589,4.36-7.493.545-11.444-8.583-6.131-13.352-4.36-12.942-70.162-20.027-17.03-1.771-17.847-.409-13.9,25.067,1.635,11.171,4.359,27.656,6.131,36.92,3.542,19.891,6.676,38.283,8.855,53,.954,5.858,3.134,18.255,4.9,27.52,1.635,9.264,3.951,22.343,5.041,29.427,1.226,7.084,3,17.847,3.951,23.978.954,6.267,2.589,16.485,3.542,22.615,4.087,26.566,6.267,37.738,9.264,50.68,1.635,7.629,3.678,19.482,4.768,26.566,3.406,24.523,5.858,40.462,8.855,55.993,3.542,17.847,6.267,33.787,8.855,51.089.954,6.539,3.134,18.8,4.9,27.52,1.635,8.583,4.9,26.294,7.084,39.237s4.768,28.882,5.858,35.285c1.226,6.54,2.725,16.348,3.678,21.661.953,5.449,2.725,14.168,3.951,19.209,1.907,7.9,1.771,10.082-.545,12.806-1.635,1.771-5.722,8.583-9.264,15.122-16.485,29.7-21.8,39.645-23.978,44.822-1.362,3-3.134,5.313-3.951,5.313s-1.635,1.771-1.635,3.678c0,2.18-.818,4.087-1.771,4.5-1.907.545-10.354,15.123-19.209,32.97-3.133,5.858-5.858,11.171-6.675,11.717-3.134,2.725-9.673,15.667-9.673,19.073,0,1.907-2.589,7.221-5.722,11.58-6.676,8.992-11.444,17.3-23.024,39.645-4.769,8.991-9.809,17.711-11.58,19.209-1.635,1.771-3,4.36-3,5.858,0,1.635-.817,2.725-1.635,2.725-.954,0-3.134,3-4.9,6.539-1.771,3.406-6.267,11.58-10.218,18.12-3.678,6.539-8.583,15.258-10.763,19.618a110.578,110.578,0,0,1-6.54,11.716c-7.629,12.125-12.4,20.572-15.94,27.52a74.132,74.132,0,0,1-4.9,8.855c-.817.545-2.589,3.678-4.087,6.812a52.717,52.717,0,0,1-6.539,10.218c-2.18,2.316-3.406,5.313-3,6.675s-1.635,4.9-4.36,8.038c-3,3-6.812,8.856-8.992,13.215-1.907,4.5-4.359,8.038-5.041,8.038-.545,0-1.771,2.725-2.589,6.13s-2.588,6.54-4.087,7.084c-1.635.545-2.725,2.589-2.725,4.5,0,1.771-1.771,4.9-3.951,6.812s-3.951,4.9-3.951,6.54c0,1.771-1.362,4.5-3.134,6.54-1.771,1.907-3.678,7.493-4.087,12.4-.954,7.221-1.907,8.855-5.858,10.082-3.134.817-5.858,3.678-7.629,8.311-1.771,3.951-4.36,8.311-5.858,9.809-1.635,1.635-2.725,4.9-2.725,7.629,0,3-1.226,4.768-3,4.768-1.907,0-3,1.907-3,5.858,0,3.542-.954,5.858-2.589,5.858s-3.951,2.18-5.313,4.9c-4.087,7.629-6.676,4.768-8.038-8.992-3.678-36.511-11.989-104.221-15.531-126.427-.953-6.54-2.725-21.935-3.951-34.332s-3-26.839-3.951-32.425c-1.771-9.4-4.5-34.2-7.9-70.707-4.9-51.088-8.992-85.42-11.58-96.183-.953-4.36-3-17.439-4.087-29.427-1.226-11.717-3-25.067-3.951-29.427s-2.725-17.439-3.951-29.427c-1.226-11.717-3-24.8-4.087-28.474a210.663,210.663,0,0,1-3.678-22.615c-.954-8.583-3.678-29.427-5.858-46.184s-4.9-37.874-5.858-47.138c-1.226-9.264-2.589-18.12-3.134-19.618-.545-1.635-2.725-17.438-4.9-35.285-7.493-62.4-11.444-93.322-12.4-97.137-.817-2.179-2.18-11.035-3.133-19.618-1.226-8.583-3.678-27.111-5.858-41.28-2.18-13.9-4.768-32.152-5.858-40.19-2.316-18.664-6.267-39.509-7.493-38.555-1.362,1.635-9.673,35.013-13.351,55.176-1.771,8.583-3.678,17.439-4.768,19.618-.818,2.18-2.589,9.264-3.951,15.667-1.363,6.54-3.134,13.9-4.087,16.757-1.907,5.313-3.678,13.351-9.809,45.231-8.038,41.688-9.809,52.587-11.989,78.745-3.134,38.283,0,84.467,10.218,150.951,4.9,31.607,5.722,36.784,8.855,51.089,1.635,8.038,4.768,23.569,6.812,34.332,2.18,10.763,5.722,28.883,7.9,40.19,13.215,65.394,15.531,89.916,15.531,164.029,0,68.527-3.406,106.81-11.716,132.695-2.316,7.629-3.133,5.45,11.989,32.152,9.672,17.3,14.577,25.476,15.667,26.566a79.763,79.763,0,0,1,5.45,7.493c4.5,6.54,4.768,7.22,3.406,35.013-1.226,23.978-1.907,28.474-4.5,27.929-3.406-.545-4.768-3.134-8.31-14.305-3-9.4-29.836-65.8-31.471-65.8-.545,0-2.316,8.311-3.678,18.256-1.635,9.809-3.542,19.482-4.36,21.253-.953,1.771-2.589,8.038-3.542,13.76-.954,5.858-3.678,19.89-6.131,31.2-2.18,11.444-4.9,25.34-6.131,31.2-.954,5.858-2.316,11.58-3.134,12.534-.953,1.771-5.449,21.8-10.626,47.138-2.18,11.036-4.5,22.615-8.583,42.642-1.771,8.038-4.9,23.569-6.812,34.332-2.18,10.763-5.041,25.885-6.676,33.378-5.313,26.294-9.673,49.454-12.942,70.707-1.226,6.539-2.725,13.9-3.678,16.757-.954,2.725-2.725,12.4-3.951,21.662-1.362,9.264-3.133,19.891-4.087,23.569s-2.725,14.986-3.951,24.523c-1.226,9.809-3,21.253-4.087,25.476-8.31,34.332-15.667,172.749-9.4,179.152,1.635,1.635,1.635,4.359,0,9.673a70.327,70.327,0,0,0-2.18,16.076c0,4.5-.817,8.311-1.907,8.311a2.051,2.051,0,0,0-1.907,1.907c0,2.725,10.354,2.316,28.473-1.227,22.752-4.5,34.332-5.449,36.92-3a8.813,8.813,0,0,0,5.449,2.181c2.18,0,4.087,2.588,5.722,7.493,5.041,16.485,8.31,21.8,13.9,23.024,6.539,1.635,6.267.954,3.678,8.038-1.635,4.087-1.362,6.131,1.226,8.856,3.951,4.359,2.589,19.89-2.18,24.522-1.635,1.771-3,3.679-3,4.769,0,.954-1.907,2.316-4.36,3-2.588.818-7.22,3.542-10.763,6.13-3.406,2.589-8.855,4.769-12.125,4.769-7.629,0-7.629,1.771-.136,8.855,3.406,3.134,5.858,7.084,5.858,8.855s1.362,4.9,3,7.084a14.15,14.15,0,0,1,3,7.9c0,3.951,8.447,18.256,11.989,20.436.818.545,2.589,5.041,3.678,10.218,1.362,4.9,4.087,11.035,6.13,13.214a21.248,21.248,0,0,1,4.9,10.082c.817,3.134,1.907,5.858,3,5.858.953,0,1.771,2.18,1.771,4.9,0,3.133,1.226,4.9,3,4.9,1.635,0,3,.818,3,1.635,0,1.771-7.629,11.717-12.125,15.94-1.907,1.635-3.542,4.087-3.542,5.449a2.875,2.875,0,0,1-3,2.588c-1.635,0-3,.954-3,2.316,0,1.226-5.313,7.084-11.989,12.942-6.812,6.267-11.444,11.716-10.763,13.352.545,1.771-.136,2.725-2.316,2.725-1.771,0-5.858,2.315-8.992,5.041-4.5,4.359-5.858,4.769-7.221,2.588a12.86,12.86,0,0,1-1.771-5.313,16.52,16.52,0,0,0-1.771-5.858c-.953-1.771-3.678-9.809-6.267-17.847s-5.722-15.667-7.084-17.03-2.588-4.768-2.588-7.493a10.466,10.466,0,0,0-3.678-7.493c-2.316-1.771-4.087-5.722-4.5-10.354-.545-6.54-.954-7.221-2.589-3.951a15.618,15.618,0,0,1-3.678,5.313c-3,1.907-1.907,70.843.954,76.838,1.771,3,2.316,20.436,2.589,56.4.136,52.179.136,52.179-5.041,60.489-3.134,4.5-5.449,8.583-5.449,9.264,0,.954-5.041,7.629-10.218,13.215-1.907,1.907-3.542,4.087-3.542,4.769,0,5.449-30.789,20.435-41.825,20.435-1.771,0-5.313,1.908-7.629,4.36-3.542,3.542-4.5,3.678-6.267,1.226-2.725-3.678-20.027-11.444-25.885-11.444-2.589,0-8.992-2.588-14.577-5.858-11.444-6.675-11.717-6.812-11.717-3.542,0,2.588,9.264,11.444,11.717,11.444.817,0,1.907,5.449,2.588,12.4.545,6.675,2.589,14.986,4.087,18.12,1.771,3.406,3.134,7.22,3.134,8.855,0,1.771,1.226,4.9,2.725,7.084,1.635,2.18,4.359,11.444,6.267,20.436,6.812,34.741-2.18,97.954-16.348,113.895-2.589,2.725-4.5,5.722-4.768,6.812,0,.954-3.951,5.041-8.856,8.855-4.768,3.678-9.809,7.9-11.171,8.855-14.986,11.989-25.885,17.711-40.054,20.845-18.256,3.951-20.163,4.087-20.163,2.315Zm25.476-714.427c.817-2.18,3.678-8.992,6.676-15.123,2.725-6.13,5.041-12.125,5.041-13.215a2.112,2.112,0,0,1,1.907-2.18,1.787,1.787,0,0,0,1.907-1.907c0-.954,2.18-6.675,4.9-12.534s4.9-11.989,4.9-13.351a7.045,7.045,0,0,1,1.771-4.5c.818-1.226,2.725-6.268,4.087-11.717a146.919,146.919,0,0,1,7.221-18.665c8.991-17.029,13.215-39.1,18.392-99.18,3.951-44.822.409-259.94-6.131-376.968-5.041-92.914-5.858-120.433-6.539-198.361-.136-46.321,0-115.8.409-154.084.817-70.162,0-85.42-6.676-116.891-6.13-28.61-11.171-55.312-12.806-67.3-.954-6.675-2.725-15.531-3.678-19.618-2.725-10.081-6.131-59.672-6.131-88.963.136-26.7,4.087-74.658,8.855-103.813,3.678-24.931,6.539-57.356,12.534-150.269,1.226-16.076,3-35.15,4.087-42.234,1.362-7.084,1.907-20.572,1.635-30.381-.545-17.711-.545-17.711-8.447-20.436-14.3-4.768-46.184-12.806-46.865-11.58-.409.136.545,22.207,1.907,48.636,1.635,26.566,3.678,66.756,4.768,89.372,3.542,77.519,8.855,145.092,12.125,159.125,3.406,13.76,3.542,138.689.136,142.5-1.362,1.635-3.133,6.54-4.359,10.627-3,11.989-8.038,30.654-10.354,38.283-5.041,15.258-6.131,31.471-6.267,96.183,0,67.165,2.725,138.689,6.676,170.841,3.951,33.787,6.13,157.9,3.951,233.237-1.226,39.646-3,77.519-3.951,84.059-3.542,21.662-6.812,169.615-6.812,306.125,0,134.057,2.18,190.868,7.22,202.04,2.725,6.13,1.907,6.812,7.493-7.629ZM317.525,2381.727a75.623,75.623,0,0,0,9.4-7.493c2.316-2.18,9.673-8.855,16.485-14.714,6.676-5.858,14.714-12.942,17.711-15.667,6.267-5.858,14.169-11.989,31.471-25.476,7.084-5.313,13.76-10.626,14.986-11.58s8.31-5.858,15.667-10.763c7.493-5.041,14.577-9.809,15.531-10.626,1.226-.818,4.768-3,7.9-4.768,17.847-10.218-3.678-9.4-48.092,1.363-24.8,6.13-28.474,6.812-35.967,8.31-4.087.545-7.9,1.907-8.447,2.725-.545.954-2.725,1.771-4.768,1.771-4.087,0-31.2,8.31-46.593,14.168-10.082,3.678-10.218,4.087-12.534,14.577-3.951,17.3,1.226,40.054,12.4,56.4,4.36,6.267,7.493,6.676,14.986,1.907ZM548.583,2125.6c11.171-16.076,11.171-16.076,8.855-24.114-1.362-4.359-3.678-10.763-5.041-14.3a28.635,28.635,0,0,1-2.725-10.218,70.92,70.92,0,0,0-1.907-12.4,228.472,228.472,0,0,1-3.134-25.749c-.545-10.082-1.907-17.03-3.133-16.757-.954.409-3.542,5.449-5.449,11.444-10.082,30.653-10.218,108.036-.136,108.036.954,0,6.812-7.22,12.943-15.94Zm405.169-937.038c5.858-7.084,10.218-111.987,10.218-245.227,0-101.769-.954-118.662-5.722-100.407-3.678,15.122-6.676,28.882-8.038,39.645-4.36,29.7-8.31,53.269-12.806,77.791-1.635,8.583-3.678,21.389-4.9,28.474-2.589,16.757-4.9,30.108-9.264,53-4.5,24.8-4.768,74.385-.136,91.279,1.771,6.539,4.36,15.667,5.449,20.436,4.768,18.8,15.122,37.465,20.844,37.465,1.226,0,3.133-1.226,4.359-2.589Z" transform="translate(0 0)" fill="#a0a0a0"/></g></g></svg>